<svg width="110" height="41" viewBox="0 0 110 41" fill="none" xmlns="http://www.w3.org/2000/svg">
<g clip-path="url(#clip0_2_8)">
<path d="M51.4714 16.5031C49.6916 16.7534 48.8018 18.8349 48.8018 22.7154C48.8018 26.5959 49.6916 28.3687 51.4714 27.9845C53.2511 27.6002 54.141 25.5158 54.141 21.7663C54.138 18.0139 53.2511 16.2498 51.4714 16.5031Z" fill="#4B321D"/>
<path d="M10.605 21.3413C12.6696 21.679 14.7342 21.9206 16.7988 22.0807C15.8062 18.8407 14.8135 15.5366 13.8209 12.1626C12.7489 15.1989 11.6769 18.2585 10.605 21.3413Z" fill="#4B321D"/>
<path d="M108.256 23.0152V19.615C108.256 16.5613 106.72 13.8132 103.935 11.8773C101.921 10.4771 99.2188 9.47274 96.1233 8.97202H96.1145H96.1057C94.5316 8.72458 93.0808 8.5994 91.7944 8.5994C89.6211 8.5994 87.8913 8.94 86.511 9.64449C85.9325 9.93851 85.4244 10.3024 84.9897 10.7187C83.2482 8.98367 80.7166 8.00263 77.63 8.00263C77.442 8.00263 77.2482 8.00554 77.0573 8.01427H77.0455H77.0338C76.8223 8.02301 76.6109 8.03756 76.3994 8.06085V6.64605C76.3935 0.320222 71.8502 0 70.9398 0C70.8869 0 70.8341 0 70.7812 0.0029111C70.0352 0.0174666 69.2394 0.203777 67.0602 0.751065C66.047 1.00724 64.8987 1.29544 64.2526 1.41189C59.6094 2.2008 59.2482 5.69412 59.2482 6.74794C59.2482 7.75809 59.5389 9.44071 61.2335 10.6459V12.1306C59.2335 11.0913 56.8429 10.5266 54.3348 10.5266C53.627 10.5266 52.9104 10.5731 52.2085 10.6605C49.3098 11.0331 46.4288 12.2325 44.0969 14.0111V9.30098C44.0969 7.3389 43.8062 5.89499 43.1806 4.75383C42.2408 3.03919 40.5815 2.05815 38.6256 2.05815C38.5698 2.05815 38.511 2.05815 38.4552 2.06106H38.4435H38.4317C37.7327 2.08435 37.025 2.26484 35.6123 2.63455C34.6608 2.8849 33.3539 3.2255 32.6931 3.30119C29.254 3.70001 26.9486 5.95903 26.9486 8.92545C26.9486 10.6284 27.6153 12.0112 28.9339 13.0505V19.9236C28.4963 18.6078 28.0323 17.2105 27.5419 15.7374C26.326 12.084 25.2775 8.93127 25.0808 8.32576L25.0455 8.21514L25.0044 8.10743C24.3348 6.40152 23.7592 4.9285 22.4464 3.79026C20.9985 2.53848 19.3186 2.2532 17.6916 1.97955C16.9662 1.84855 16.3289 1.78451 15.7386 1.78451C11.3186 1.78451 9.84141 5.36517 9.04552 7.29523C7.48899 11.0244 3.40969 24.9394 2.2232 29.3119C1.33627 29.9873 0 31.3351 0 33.7077C0 36.7411 1.78855 39.003 4.66373 39.6114C6.00294 39.8938 7.37445 40.1354 8.74303 40.3334C9.12188 40.3858 9.48018 40.412 9.81791 40.412C12.9457 40.412 15.1278 38.1995 15.1278 35.0293C15.1278 33.0381 14.2438 31.7864 13.5213 31.0586C13.5272 31.0295 13.536 31.0004 13.5419 30.9683C14.4082 31.0702 15.2805 31.1546 16.1645 31.2274C16.2643 31.6612 16.3495 32.0309 16.42 32.3424C16.4258 32.3715 16.4317 32.4006 16.4405 32.4268C15.8855 33.1546 15.3627 34.2113 15.3627 35.6377C15.3627 37.3262 16.138 38.8603 17.489 39.8443C18.5433 40.6128 19.8473 41 21.3715 41C21.4684 41 21.5683 40.9971 21.6681 40.9942C24.0117 40.9185 26.4816 40.738 29.0103 40.4614C29.8943 40.3625 30.6461 40.1441 31.2922 39.8501C31.6623 39.9287 32.0441 39.9753 32.4376 39.9753C32.7254 39.9753 33.0162 39.9549 33.3069 39.9113C35.7298 39.5561 38.2526 39.1194 41.0191 38.5751C42.7812 38.2257 44.2643 37.1311 45.1101 35.7076C46.558 36.2898 48.1909 36.6071 49.9589 36.6071C51.1777 36.6071 52.4112 36.4529 53.627 36.1472C56.5463 35.4194 59.4596 33.8998 61.7621 31.9348C62.6344 32.6044 63.7592 33.0032 65.0015 33.0032C65.442 33.0032 65.8943 32.9537 66.3465 32.8547C68.6843 32.3482 70.7959 31.9261 72.79 31.5593C73.6035 31.4079 74.3554 31.1197 75.0132 30.7238C75.4361 30.8228 75.8796 30.8752 76.3407 30.8752C76.6667 30.8752 76.9985 30.849 77.3333 30.7995C79.5565 30.4647 81.6329 30.2114 83.6711 30.028C84.8458 29.9203 85.9001 29.5186 86.7577 28.9189C88.2731 29.6059 90.0676 29.964 92.0529 29.964H92.2027C93.7651 29.964 95.1278 29.801 96.3054 29.472C97.301 29.9524 98.3054 30.0717 98.9281 30.1445C100.529 30.3395 102.135 30.6044 103.692 30.9305C104.317 31.0615 104.869 31.1255 105.374 31.1255C106.496 31.1255 107.474 30.817 108.288 30.2056C109.38 29.3847 110.009 28.1067 110.009 26.6977C110 24.8317 108.987 23.6615 108.256 23.0152ZM27.3715 35.006C25.022 35.2535 22.6725 35.4252 20.3231 35.498C18.8164 35.5446 17.9618 34.9653 17.9618 33.9784C17.9618 32.7063 19.2952 32.5898 19.2952 31.8941C19.2952 31.2798 18.9545 30.3162 18.0646 26.2669C15.2129 26.1505 12.3612 25.8797 9.50955 25.4227C8.79002 27.9553 8.34655 29.3498 8.34655 30.293C8.34655 32.0192 10.091 31.6146 10.091 33.3962C10.091 34.5432 9.50955 35.0905 8.07342 34.8954C6.79589 34.7178 5.51836 34.5024 4.24082 34.2433C3.14537 34.0192 2.59912 33.3583 2.59912 32.124C2.59912 30.5841 4.24082 30.6598 4.4464 29.7369C5.06314 27.28 9.81791 11.6182 11.3598 8.07541C12.4905 5.42921 13.1395 4.68979 15.8091 5.16139C18.8546 5.65337 19.025 5.85132 20.2232 8.79445C20.7695 10.4305 27.4772 29.7515 27.8209 30.8956C28.1968 32.3104 29.4303 31.6728 29.4303 33.3001C29.4244 34.3801 28.6725 34.8663 27.3715 35.006ZM39.0543 33.2361C36.5463 33.7106 34.0352 34.1385 31.5272 34.4937C30.3642 34.6596 29.7474 33.8794 29.7474 33.2215C29.7474 31.6786 31.5272 32.0804 31.5272 30.0455C31.5272 23.807 31.5272 17.5714 31.5272 11.3329C31.5272 9.19036 29.5418 10.0462 29.5418 8.2588C29.5418 7.24865 30.5697 6.61403 31.9031 6.46556C33.58 6.28216 36.6608 5.31568 37.3451 5.29239C38.373 5.26328 39.0573 5.97359 39.0573 8.62269C39.0573 15.4027 39.0573 22.1826 39.0573 28.9626C39.0573 30.9188 40.837 30.0106 40.837 31.469C40.8341 32.0862 40.2203 33.0148 39.0543 33.2361ZM51.4714 30.9392C46.4405 32.1561 40.9662 30.0572 40.931 24.0079C40.9662 17.9732 46.4405 14.1654 51.4714 13.5425C56.5022 12.9282 61.9765 15.1436 62.0117 20.3836C61.9765 25.6148 56.4993 29.7311 51.4714 30.9392ZM82.0999 24.9511C79.909 25.1403 77.721 25.4023 75.5301 25.7196C74.3671 25.8914 73.7504 25.3324 73.7504 24.8201C73.7504 23.6207 75.0514 23.9147 75.0514 22.3456C75.0514 20.4068 75.0514 18.4651 75.0514 16.5263C75.0514 15.1639 74.5374 14.1276 73.2041 14.2324C71.8708 14.343 71.3568 15.4929 71.3568 16.8931C71.3568 18.8814 71.3568 20.8697 71.3568 22.8551C71.3568 24.4678 72.6579 23.7808 72.6579 24.9889C72.6579 25.5013 72.0411 26.264 70.8781 26.4707C68.6872 26.8579 66.4993 27.2858 64.3084 27.7428C63.1454 27.9874 62.5286 27.411 62.5286 26.8637C62.5286 25.577 63.8297 25.8302 63.8297 24.1389C63.8297 21.8624 63.8297 19.5859 63.8297 17.3065C63.8297 14.3925 63.8297 11.4756 63.8297 8.56156C63.8297 6.77414 61.8443 7.64747 61.8443 6.1599C61.8443 5.31859 62.3583 4.82661 63.6916 4.61119C65.3686 4.32299 68.9604 3.31575 69.6446 3.30993C70.6725 3.2779 71.3568 3.87468 71.3568 6.06092C71.3568 8.21223 71.3568 10.3606 71.3568 12.5119C72.7607 11.6648 74.4376 11.0855 75.9765 11.0214C80.4934 10.8642 82.5815 13.1582 82.5815 16.6486C82.5815 18.3108 82.5815 19.976 82.5815 21.6382C82.5815 23.1316 83.8825 22.6018 83.8825 23.7197C83.8796 24.2 83.2628 24.8492 82.0999 24.9511ZM103.251 25.8855C101.551 25.542 99.8532 25.2771 98.1527 25.0763C96.6138 24.9016 96.2027 24.7036 95.9295 23.5246C94.8341 24.6658 92.6784 24.887 90.8311 24.8754C86.4846 24.8754 84.4993 22.8085 84.4993 20.6572C84.4993 17.8305 87.5095 15.5831 95.5184 16.6224C95.4508 14.6196 94.9016 14.0577 93.5007 13.8685C91.5507 13.6269 91.5507 15.589 88.7783 15.4172C86.8957 15.3211 85.9031 14.6283 85.9031 13.6851C85.9031 12.1218 88.4699 11.0273 94.2878 11.9064C99.0103 12.64 103.219 14.7797 103.219 18.5554C103.219 19.9673 103.219 21.3821 103.219 22.794C103.219 24.2815 104.963 24.299 104.963 25.3761C104.963 26.0195 104.347 26.1068 103.251 25.8855Z" fill="#4B321D"/>
<path d="M92.0264 20.7678C92.0264 21.6906 92.6432 22.2962 93.533 22.3544C95.1747 22.465 95.6887 20.7416 95.6887 18.5408C93.5683 18.2614 92.0264 19.0794 92.0264 20.7678Z" fill="#4B321D"/>
</g>
<defs>
<clipPath id="clip0_2_8">
<rect width="110" height="41" fill="white"/>
</clipPath>
</defs>
</svg>
