<svg width="50" height="57" viewBox="0 0 50 57" fill="none" xmlns="http://www.w3.org/2000/svg">
<g clip-path="url(#clip0_2_57)">
<path d="M49.8985 17.231C46.6133 10.3433 39.8041 6.03102 33.7116 5.85135C35.0854 4.41392 36.7579 3.09628 38.6692 1.95831C39.5054 1.47917 39.2068 0.281313 38.2511 0.161528C33.3532 -0.197829 28.5151 1.29949 25.23 4.23424C21.4072 1.17971 15.7926 -0.557186 10.1183 0.161528C9.16259 0.281313 8.9834 1.65885 9.93908 2.0182C12.3283 2.9166 14.5383 4.17435 16.3899 5.73156C10.178 5.85135 3.30904 10.4032 0.0836235 17.4706C-0.274757 18.3091 0.621193 19.1476 1.39768 18.6684C5.39959 16.4524 9.81962 14.8353 13.5826 14.5358C8.86394 17.5903 6.415 23.8192 7.07203 30.048C7.19149 31.0063 8.44582 31.2459 8.86394 30.4074C12.1491 24.1785 16.6288 20.8246 21.1086 20.7048C22.8408 37.2352 19.7945 51.0704 18.6597 55.5025C18.4805 56.2811 19.018 56.9998 19.7945 56.9998H29.8292C30.4862 56.9998 30.964 56.5207 31.0238 55.8619C31.0835 55.0233 31.0835 53.8255 31.1432 52.2084L27.3802 51.7891C27.0816 51.7292 27.0816 51.0704 27.3802 51.0704L31.203 50.6512C31.203 48.6747 31.203 46.279 31.0835 43.5838L27.201 43.1646C26.9024 43.1047 26.9024 42.4459 27.201 42.4459L31.0238 42.0266C30.964 39.8705 30.7849 37.4748 30.6057 35.0191L26.6038 34.54C26.3051 34.4801 26.3051 33.8213 26.6038 33.8213L30.4862 33.402C30.307 31.1261 30.0681 28.7304 29.7097 26.3347L26.1856 25.7358C25.887 25.7358 25.887 25.017 26.1856 25.017L29.4708 24.6577C29.2916 23.2802 29.0527 21.9026 28.8735 20.5251C33.5324 21.124 37.7733 24.5379 40.5208 30.8865C40.8792 31.725 42.1335 31.5454 42.3127 30.647C43.6268 23.7593 41.3571 17.4107 36.5787 14.3561C39.8638 14.6556 43.9255 16.1529 48.6441 18.5486C49.4206 18.908 50.3166 18.0695 49.8985 17.231Z" fill="#4B321D"/>
</g>
<defs>
<clipPath id="clip0_2_57">
<rect width="50" height="57" fill="white"/>
</clipPath>
</defs>
</svg>
